<?xml version="1.0" encoding="UTF-8"?>
<svg id="Camada_1" data-name="Camada 1" xmlns="http://www.w3.org/2000/svg" viewBox="0 0 999 1000">
  <defs>
    <style>
      .cls-1 {
        fill: #fff;
      }

      .cls-2 {
        fill: #e8923c;
        font-family: MyriadPro-Regular, 'Myriad Pro';
        font-size: 502.06px;
      }
    </style>
  </defs>
  <g>
    <path class="cls-1" d="M304.31,350.16c5.29,0,9.74-.66,13.33-1.98s6.84-2.56,9.74-3.73c2.9-1.17,5.86-1.76,8.89-1.76,5.04,0,8.85,1.43,11.44,4.28,2.58,2.85,4.69,7.79,6.33,14.82l16.07,65.42c1.01,3.95.53,7.32-1.42,10.1-1.96,2.78-4.76,4.47-8.41,5.05-2.9.59-5.74.22-8.51-1.1-2.77-1.32-5.11-4.1-7-8.34-6.43-15.51-12.57-27.26-18.44-35.24-5.86-7.98-11.98-13.39-18.34-16.25-6.37-2.85-13.59-4.28-21.65-4.28h-31.01v237.33c0,3.51.72,6.48,2.17,8.89,1.45,2.41,3.88,3.99,7.28,4.72l13.99,2.85c3.65.73,6.27,2.2,7.85,4.39,1.57,2.2,2.36,5.34,2.36,9.44s-1.13,7.06-3.4,9.33c-2.27,2.27-5.8,3.4-10.59,3.4h-106.46c-4.79,0-8.32-1.13-10.59-3.4-2.27-2.27-3.4-5.38-3.4-9.33,0-6.73,3.03-11.34,9.08-13.83l8.89-2.85c3.15-1.32,5.51-3.04,7.09-5.16,1.57-2.12,2.36-4.94,2.36-8.45v-221.3c0-3.51-.79-6.33-2.36-8.45-1.58-2.12-3.94-3.84-7.09-5.16l-8.89-2.85c-6.05-2.49-9.08-7.1-9.08-13.83,0-4.1,1.13-7.24,3.4-9.44s5.8-3.29,10.59-3.29h135.77ZM227.73,497.7h56.16c7.81,0,13.39-1.79,16.73-5.38,3.34-3.58,6.27-10.79,8.79-21.62,1.01-3.8,2.46-6.51,4.35-8.12,1.89-1.61,4.16-2.49,6.81-2.63,6.3-.14,10.21,3.37,11.72,10.54l14.37,67.62c1.01,4.54.91,8.09-.28,10.65-1.2,2.56-3.19,4.43-5.96,5.6-3.15,1.17-6.05,1.21-8.7.11s-5.11-3.47-7.37-7.14c-3.53-6.15-6.78-10.9-9.74-14.27-2.96-3.37-6.4-5.71-10.31-7.03-3.91-1.32-8.95-1.98-15.13-1.98h-61.45v-26.35Z"/>
    <path class="cls-1" d="M473.36,459.28v157.19c0,5.27.47,9.04,1.42,11.31.95,2.27,2.49,3.92,4.63,4.94l5.48,2.2c2.77,1.17,4.76,2.71,5.96,4.61,1.2,1.9,1.8,4.17,1.8,6.81,0,3.51-1.01,6.26-3.03,8.23-2.02,1.98-5.17,2.96-9.45,2.96h-80.36c-4.41,0-7.6-.99-9.55-2.96-1.96-1.98-2.93-4.72-2.93-8.23,0-2.63.6-4.9,1.8-6.81,1.2-1.9,3.12-3.44,5.77-4.61l5.86-2.2c2.02-1.02,3.5-2.67,4.44-4.94.95-2.27,1.42-5.96,1.42-11.09v-114.16c0-4.24-.51-7.28-1.51-9.11-1.01-1.83-2.65-3.04-4.92-3.62l-7-1.1c-2.52-.88-4.32-2.12-5.39-3.73-1.07-1.61-1.61-3.66-1.61-6.15,0-3.07.72-5.49,2.17-7.24,1.45-1.76,4.13-3.51,8.04-5.27l38.39-16.9c5.92-2.63,10.62-4.5,14.09-5.6,3.47-1.1,6.46-1.65,8.98-1.65,5.17,0,9.04,1.61,11.63,4.83,2.58,3.22,3.88,7.32,3.88,12.29ZM435.73,415.81c-12.1,0-21.75-3.44-28.93-10.32-7.19-6.88-10.78-16.03-10.78-27.44s3.59-20.67,10.78-27.33c7.19-6.66,16.83-9.99,28.93-9.99s21.93,3.37,29.12,10.1c7.19,6.73,10.78,15.81,10.78,27.22s-3.59,20.56-10.78,27.44c-7.19,6.88-16.89,10.32-29.12,10.32Z"/>
  </g>
  <text class="cls-2" transform="translate(485.15 650.52) scale(1.03 1)"><tspan x="0" y="0">.</tspan></text>
  <path class="cls-1" d="M746.25,359.19c0-4.12,1.27-7.29,3.8-9.5s6.47-3.31,11.83-3.31h66.94c5.35,0,9.29,1.1,11.83,3.31s3.8,5.3,3.8,9.28c0,2.95-.78,5.38-2.32,7.29-1.55,1.92-4.09,3.68-7.6,5.3l-6.97,3.09c-4.79,2.21-8.76,5.56-11.93,10.05-3.17,4.49-6.23,11.6-9.19,21.31l-63.57,199.66c-1.97,6.33-3.38,11.34-4.22,15.02-.84,3.68-1.27,7.44-1.27,11.26v11.26c0,3.83-1.2,6.85-3.59,9.06-2.4,2.21-5.35,3.31-8.87,3.31h-64.62c-3.66,0-6.62-1.1-8.87-3.31-2.25-2.21-3.38-5.45-3.38-9.72v-11.04c0-2.35-.42-5.15-1.27-8.39-.84-3.24-1.9-6.77-3.17-10.6l-72.44-220.2c-1.55-5.15-3.27-8.87-5.17-11.15-1.9-2.28-4.54-4.23-7.92-5.85l-7.18-3.09c-5.77-2.8-8.66-7.14-8.66-13.03,0-4.12,1.3-7.29,3.91-9.5,2.6-2.21,6.58-3.31,11.93-3.31h111.08c5.49,0,9.5,1.1,12.04,3.31s3.8,5.38,3.8,9.5c0,3.09-.84,5.6-2.53,7.51-1.69,1.92-4.22,3.61-7.6,5.08l-10.35,3.09c-3.66,1.47-5.95,3.87-6.86,7.18-.92,3.31-.32,8.28,1.8,14.91l68.21,211.15-23.44,20.76,72.22-225.51c2.39-7.36,2.81-13.25,1.27-17.67-1.55-4.42-5.7-8.1-12.46-11.04l-9.08-3.09c-3.24-1.47-5.7-3.09-7.39-4.86s-2.53-4.27-2.53-7.51Z"/>
</svg>