<svg xmlns="http://www.w3.org/2000/svg" width="1024" height="1024" viewBox="0 0 1024 1024">
<g>
<path d="M 139.00 587.71 C136.52,587.01 131.95,584.97 128.82,583.19 C119.48,577.84 115.92,570.56 113.07,551.00 C111.73,541.76 111.58,282.66 112.91,280.15 C113.40,279.24 114.27,274.57 114.86,269.76 C116.00,260.36 119.81,248.09 122.83,244.01 C125.37,240.58 133.05,235.95 138.23,234.73 C143.91,233.39 288.56,232.64 322.50,233.78 C353.23,234.81 353.96,235.01 356.61,243.26 C359.21,251.35 359.68,271.43 357.43,278.58 C354.96,286.45 352.22,290.15 347.00,292.69 C338.88,296.63 328.21,297.21 254.88,297.73 C216.59,298.00 184.66,298.59 183.94,299.04 C181.87,300.32 180.78,324.97 181.48,354.50 C181.84,369.63 182.52,380.92 183.10,381.50 C183.74,382.14 208.44,382.68 251.30,383.00 L 318.50 383.50 L 324.64 386.34 C336.29,391.72 338.53,395.81 339.68,413.84 C340.26,422.89 339.19,428.47 335.41,436.09 C333.52,439.89 332.30,441.00 328.31,442.53 C322.79,444.67 325.30,444.57 241.68,445.89 C209.88,446.40 183.60,447.07 183.29,447.38 C182.03,448.63 181.19,480.13 181.70,507.00 C182.35,541.97 181.03,566.08 178.15,571.65 C171.65,584.25 153.32,591.77 139.00,587.71 ZM 442.77 587.15 C435.71,583.12 430.26,577.31 428.47,571.90 C427.60,569.29 426.48,563.19 425.96,558.33 C424.69,546.24 424.71,355.78 425.99,349.06 C427.99,338.52 432.62,332.45 441.99,328.12 C446.76,325.91 448.90,325.57 458.00,325.54 C467.31,325.50 469.14,325.80 474.15,328.15 C477.25,329.60 481.62,332.62 483.86,334.86 C484.91,335.91 485.81,336.69 486.57,337.58 C491.34,343.13 491.03,353.03 490.77,459.08 L 490.50 568.50 L 488.24 572.72 C484.90,578.98 480.49,583.58 474.55,586.97 C469.52,589.85 468.72,590.00 458.38,589.92 C448.47,589.86 447.08,589.61 442.77,587.15 ZM 520.00 620.00 L 536.50 620.05 L 560.50 656.31 L 560.77 638.16 L 561.05 620.00 L 578.00 620.00 L 578.00 687.08 L 569.75 686.79 L 561.50 686.50 L 549.50 669.20 L 537.50 651.89 L 536.95 687.00 L 520.00 687.00 L 520.00 620.00 ZM 589.00 620.00 L 605.50 620.05 L 629.50 656.31 L 629.77 638.16 L 630.05 620.00 L 647.00 620.00 L 647.00 687.00 L 631.07 687.00 L 619.29 670.02 C612.80,660.68 607.16,653.03 606.75,653.02 C606.34,653.01 606.00,660.65 606.00,670.00 L 606.00 687.00 L 589.00 687.00 L 589.00 620.00 ZM 658.00 620.00 L 707.00 620.00 L 707.00 635.00 L 676.00 635.00 L 676.00 646.00 L 703.00 646.00 L 703.00 660.00 L 676.00 660.00 L 676.00 672.00 L 707.00 672.00 L 707.00 687.00 L 658.00 687.00 L 658.00 620.00 ZM 736.30 686.20 C730.08,683.98 724.12,680.00 721.31,676.21 C707.72,657.83 712.76,631.62 731.67,622.37 C739.10,618.74 751.17,617.92 759.38,620.51 C768.52,623.38 776.66,632.01 778.48,640.75 L 779.16 644.00 L 770.55 644.00 C762.42,644.00 761.90,643.87 761.05,641.63 C759.71,638.10 755.41,635.18 750.44,634.44 C746.91,633.91 745.07,634.25 741.26,636.14 C735.07,639.21 732.00,644.87 732.00,653.24 C732.00,660.54 733.69,664.64 738.39,668.77 C741.59,671.58 742.79,672.00 747.58,672.00 C754.18,672.00 758.42,670.03 760.51,665.98 C762.04,663.03 762.13,663.00 770.53,663.00 C775.19,663.00 779.00,663.37 779.00,663.82 C779.00,664.27 778.29,666.72 777.42,669.27 C775.23,675.72 769.16,682.25 762.79,685.03 C755.48,688.21 743.44,688.74 736.30,686.20 ZM 803.00 635.07 L 782.50 634.50 L 781.91 620.00 L 840.00 620.00 L 840.00 635.00 L 820.00 635.00 L 820.00 687.00 L 803.00 687.00 L 803.00 635.07 Z" fill="rgba(1,1,0,1)"/>
<path d="M 444.89 308.70 C437.78,305.71 434.62,303.44 428.65,297.06 C416.94,284.53 414.05,265.35 421.50,249.58 C423.64,245.06 427.76,240.04 432.20,236.16 C430.51,238.21 428.58,241.26 426.73,245.00 C423.24,252.03 422.52,254.45 422.59,259.00 C422.73,268.56 423.87,272.33 427.35,274.72 C429.08,275.90 430.61,276.90 430.75,276.94 C430.89,276.97 431.00,275.92 431.00,274.59 C431.00,272.68 430.59,272.29 429.01,272.71 C426.42,273.38 425.36,270.69 426.90,267.33 C427.90,265.13 428.50,264.87 431.33,265.40 C434.35,265.97 434.97,265.59 439.36,260.51 C441.98,257.48 444.79,255.00 445.63,255.00 C446.65,255.00 446.94,254.39 446.53,253.11 C446.07,251.65 446.63,250.98 448.97,250.16 C450.64,249.58 452.00,248.83 452.00,248.49 C452.00,246.82 449.76,244.00 448.43,244.00 C447.61,244.00 446.68,243.32 446.36,242.50 C445.43,240.07 444.22,240.76 442.86,244.50 C441.36,248.67 440.76,248.81 438.57,245.47 C436.59,242.45 436.98,241.67 442.06,238.46 C446.81,235.46 448.35,235.33 447.50,238.00 C447.04,239.44 447.32,240.00 448.50,240.00 C449.69,240.00 450.05,239.26 449.82,237.25 C449.51,234.56 449.37,234.51 443.57,234.77 C439.89,234.95 437.38,234.61 436.93,233.89 C436.66,233.45 436.26,233.27 435.78,233.33 C437.60,232.05 439.41,231.02 441.08,230.36 C456.06,224.42 462.83,223.71 472.56,227.03 C476.22,228.28 479.69,230.04 482.87,232.18 C482.16,231.96 482.00,232.41 482.00,233.43 C482.00,234.22 480.99,235.00 479.75,235.18 C475.67,235.76 476.52,244.00 480.66,244.00 C481.74,244.00 481.83,243.55 481.04,242.07 C479.66,239.49 479.73,239.00 481.46,239.00 C483.04,239.00 485.00,241.95 485.00,244.34 C485.00,245.14 483.42,246.73 481.50,247.87 C477.98,249.94 476.78,253.39 479.25,254.29 C480.11,254.60 479.79,255.43 478.24,256.92 C476.45,258.64 476.19,259.49 477.01,261.01 C478.36,263.54 480.61,262.57 481.88,258.91 C483.27,254.92 485.54,254.29 489.07,256.90 L 492.00 259.06 L 492.00 255.53 C492.00,251.54 492.54,251.29 496.00,253.71 L 498.44 255.42 L 496.05 255.99 C492.62,256.80 492.22,259.00 495.49,259.00 C499.43,259.00 498.32,261.91 493.79,263.47 C490.50,264.59 489.89,264.53 488.46,262.95 C486.91,261.24 486.67,261.24 482.67,263.02 C477.26,265.43 473.05,271.83 473.02,277.69 C472.99,283.42 475.34,285.03 482.65,284.27 L 488.08 283.71 L 487.59 288.61 C487.32,291.30 485.95,295.86 484.55,298.75 C483.15,301.63 482.00,304.22 482.00,304.50 C482.00,304.91 482.26,305.02 482.70,304.89 C476.72,308.53 469.43,310.39 460.50,310.71 C453.97,310.94 451.23,310.86 448.22,309.95 C448.72,309.92 449.00,309.58 449.00,308.93 C449.00,308.34 451.17,305.75 453.83,303.18 C460.00,297.20 461.80,293.32 459.28,291.42 C458.30,290.67 456.50,290.05 455.27,290.03 C454.00,290.01 452.32,288.89 451.35,287.41 C450.41,285.98 448.72,284.41 447.58,283.91 C446.43,283.41 444.83,282.62 444.00,282.16 C438.34,278.96 437.76,278.81 436.42,280.16 C435.69,280.90 434.80,283.38 434.43,285.67 C433.81,289.59 434.03,290.13 438.20,294.67 C440.86,297.57 443.15,301.30 443.93,304.00 C444.64,306.48 445.73,308.83 446.36,309.23 C446.45,309.29 446.54,309.35 446.63,309.40 C446.08,309.19 445.51,308.96 444.89,308.70 ZM 455.67 242.33 C456.82,243.49 459.00,243.06 459.00,241.67 C459.00,240.95 460.12,239.29 461.50,238.00 C464.25,235.42 464.65,232.44 462.61,229.75 C461.53,228.34 460.38,228.12 456.61,228.64 C451.24,229.38 450.08,230.44 452.97,231.99 C454.53,232.82 455.00,234.07 455.00,237.37 C455.00,239.73 455.30,241.97 455.67,242.33 ZM 502.49 271.67 C502.29,273.00 502.01,274.45 501.65,275.93 C501.97,274.14 501.87,273.00 501.16,273.00 C500.26,273.00 498.00,268.60 498.00,266.83 C498.00,266.14 498.53,266.20 499.50,267.00 C500.33,267.68 501.00,269.09 501.00,270.12 C501.00,271.16 501.45,272.00 502.00,272.00 C502.19,272.00 502.36,271.88 502.49,271.67 ZM 494.74 243.65 C499.23,249.84 502.09,256.99 502.71,264.18 C502.33,261.13 501.62,257.70 500.63,254.92 C499.33,251.23 497.20,247.24 494.74,243.65 ZM 492.53 295.84 C490.82,298.12 488.95,300.12 486.91,301.85 C488.70,300.21 490.74,298.08 492.53,295.84 Z" fill="rgba(98,60,47,1)"/>
<path d="M 253.30 686.50 C250.38,684.45 248.67,679.01 249.91,675.74 C253.39,666.59 267.05,668.96 266.97,678.70 C266.93,682.85 265.68,685.05 262.32,686.84 C259.33,688.43 255.87,688.30 253.30,686.50 ZM 392.95 686.64 C369.51,680.32 361.08,648.21 377.99,629.71 C384.17,622.94 390.80,619.87 400.65,619.22 C417.41,618.11 429.31,625.42 433.52,639.40 L 434.90 644.00 L 426.20 644.00 L 417.49 644.00 L 416.11 640.88 C414.15,636.47 407.37,633.57 401.18,634.50 C386.20,636.74 381.96,660.90 394.98,669.75 C399.88,673.08 408.74,672.93 412.87,669.46 C414.53,668.06 416.17,666.03 416.51,664.96 C417.07,663.21 418.08,663.00 425.99,663.00 L 434.84 663.00 L 433.83 666.75 C432.32,672.35 427.45,679.42 422.95,682.54 C415.60,687.63 403.01,689.35 392.95,686.64 ZM 465.73 686.91 C448.60,682.88 437.58,665.24 440.91,647.17 C443.11,635.26 449.27,627.03 459.86,621.84 C463.77,619.94 466.16,619.57 475.00,619.54 C484.49,619.50 486.04,619.77 491.14,622.27 C497.72,625.50 504.28,632.20 507.34,638.82 C509.10,642.63 509.50,645.36 509.50,653.50 C509.50,662.43 509.20,664.11 506.70,669.20 C502.78,677.19 495.55,683.44 487.30,685.99 C480.53,688.08 472.21,688.44 465.73,686.91 ZM 484.05 669.75 C488.58,666.69 491.02,662.17 491.71,655.55 C493.27,640.37 480.71,629.96 468.26,636.14 C462.07,639.21 459.00,644.87 459.00,653.24 C459.00,660.54 460.69,664.64 465.39,668.77 C468.64,671.62 469.76,672.00 474.89,672.00 C479.27,672.00 481.53,671.44 484.05,669.75 ZM 159.00 653.50 L 159.00 620.00 L 183.50 620.00 L 208.00 620.00 L 208.00 627.50 L 208.00 635.00 L 192.50 635.00 L 177.00 635.00 L 177.00 642.00 L 177.00 649.00 L 190.50 649.00 L 204.00 649.00 L 204.00 656.50 L 204.00 664.00 L 190.50 664.00 L 177.00 664.00 L 177.00 675.50 L 177.00 687.00 L 168.00 687.00 L 159.00 687.00 L 159.00 653.50 ZM 219.00 653.50 L 219.00 620.00 L 227.50 620.00 L 236.00 620.00 L 236.00 653.50 L 236.00 687.00 L 227.50 687.00 L 219.00 687.00 L 219.00 653.50 ZM 287.32 653.49 L 276.15 619.93 L 285.24 620.21 L 294.34 620.50 L 297.11 629.00 C298.63,633.67 302.22,644.92 305.09,654.00 L 310.29 670.50 L 314.22 658.00 C316.39,651.12 319.95,639.76 322.15,632.75 L 326.14 620.00 L 335.07 620.00 C339.98,620.00 344.00,620.11 343.99,620.25 C343.98,620.39 339.06,635.35 333.04,653.50 L 322.11 686.50 L 310.30 686.78 L 298.50 687.06 L 287.32 653.49 ZM 549.00 555.52 L 549.00 521.05 L 587.00 520.77 C607.91,520.62 625.46,520.65 626.00,520.83 C626.64,521.05 627.00,533.62 627.00,555.58 L 627.00 590.00 L 588.00 590.00 L 549.00 590.00 L 549.00 555.52 ZM 740.00 586.30 C735.50,584.67 728.32,580.58 724.59,577.52 C719.12,573.04 717.47,569.88 703.99,538.00 C697.82,523.42 685.67,494.85 677.00,474.50 C668.33,454.15 655.50,424.00 648.49,407.50 C641.48,391.00 631.48,367.60 626.26,355.50 C592.32,276.82 590.00,270.79 590.00,261.26 C590.00,253.94 594.31,244.53 599.72,240.08 C609.34,232.15 623.21,230.88 635.27,236.81 C646.00,242.09 650.37,248.59 661.00,275.00 C663.10,280.23 668.51,293.05 673.01,303.50 C677.52,313.95 684.03,329.70 687.49,338.50 C690.94,347.30 695.58,358.77 697.79,364.00 C699.99,369.23 706.31,384.52 711.82,398.00 C717.34,411.48 724.30,428.12 727.30,435.00 C730.30,441.88 735.49,454.80 738.84,463.72 C745.33,481.03 747.36,485.00 749.71,485.00 C752.19,485.00 756.39,479.64 758.40,473.91 C761.35,465.51 772.70,437.13 784.77,408.00 C790.81,393.42 799.23,372.95 803.49,362.50 C811.27,343.38 820.98,319.86 836.71,282.00 C850.32,249.24 854.87,241.92 864.62,237.05 C870.61,234.06 883.55,233.06 890.63,235.04 C896.86,236.78 904.34,242.91 907.98,249.26 C910.51,253.68 910.98,255.58 910.99,261.35 C911.00,269.91 912.27,266.78 845.00,424.50 C828.11,464.10 811.71,502.80 808.55,510.50 C794.10,545.72 784.42,567.49 781.08,572.28 C776.85,578.36 769.91,583.36 762.72,585.49 C757.86,586.93 743.19,587.46 740.00,586.30 ZM 446.36 309.23 C445.73,308.83 444.64,306.48 443.93,304.00 C443.15,301.30 440.86,297.57 438.20,294.67 C434.03,290.13 433.81,289.59 434.43,285.67 C434.80,283.38 435.69,280.90 436.42,280.16 C437.76,278.81 438.34,278.96 444.00,282.16 C444.83,282.62 446.43,283.41 447.58,283.91 C448.72,284.41 450.41,285.98 451.35,287.41 C452.32,288.89 454.00,290.01 455.27,290.03 C456.50,290.05 458.30,290.67 459.28,291.42 C461.80,293.32 460.00,297.20 453.83,303.18 C451.17,305.75 449.00,308.34 449.00,308.93 C449.00,310.17 447.99,310.29 446.36,309.23 ZM 482.00 304.50 C482.00,304.22 483.15,301.63 484.55,298.75 C485.95,295.86 487.32,291.30 487.59,288.61 L 488.08 283.71 L 482.65 284.27 C475.34,285.03 472.99,283.42 473.02,277.69 C473.05,271.83 477.26,265.43 482.67,263.02 C486.67,261.24 486.91,261.24 488.46,262.95 C489.89,264.53 490.50,264.59 493.79,263.47 C498.32,261.91 499.43,259.00 495.49,259.00 C492.22,259.00 492.62,256.80 496.05,255.99 L 498.44 255.42 L 496.00 253.71 C492.54,251.29 492.00,251.54 492.00,255.53 L 492.00 259.06 L 489.07 256.90 C485.54,254.29 483.27,254.92 481.88,258.91 C480.61,262.57 478.36,263.54 477.01,261.01 C476.19,259.49 476.45,258.64 478.24,256.92 C479.79,255.43 480.11,254.60 479.25,254.29 C476.78,253.39 477.98,249.94 481.50,247.87 C483.42,246.73 485.00,245.14 485.00,244.34 C485.00,241.95 483.04,239.00 481.46,239.00 C479.73,239.00 479.66,239.49 481.04,242.07 C481.83,243.55 481.74,244.00 480.66,244.00 C476.52,244.00 475.67,235.76 479.75,235.18 C480.99,235.00 482.00,234.22 482.00,233.43 C482.00,231.44 482.62,231.61 486.70,234.72 C491.99,238.75 498.01,247.48 500.63,254.92 C502.99,261.60 503.82,272.00 502.00,272.00 C501.45,272.00 501.00,271.16 501.00,270.12 C501.00,269.09 500.33,267.68 499.50,267.00 C498.53,266.20 498.00,266.14 498.00,266.83 C498.00,268.60 500.26,273.00 501.16,273.00 C503.75,273.00 498.26,288.34 493.37,294.78 C488.78,300.81 482.00,306.61 482.00,304.50 ZM 427.35 274.72 C423.87,272.33 422.73,268.56 422.59,259.00 C422.52,254.45 423.24,252.03 426.73,245.00 C430.93,236.53 435.49,231.56 436.93,233.89 C437.38,234.61 439.89,234.95 443.57,234.77 C449.37,234.51 449.51,234.56 449.82,237.25 C450.05,239.26 449.69,240.00 448.50,240.00 C447.32,240.00 447.04,239.44 447.50,238.00 C448.35,235.33 446.81,235.46 442.06,238.46 C436.98,241.67 436.59,242.45 438.57,245.47 C440.76,248.81 441.36,248.67 442.86,244.50 C444.22,240.76 445.43,240.07 446.36,242.50 C446.68,243.32 447.61,244.00 448.43,244.00 C449.76,244.00 452.00,246.82 452.00,248.49 C452.00,248.83 450.64,249.58 448.97,250.16 C446.63,250.98 446.07,251.65 446.53,253.11 C446.94,254.39 446.65,255.00 445.63,255.00 C444.79,255.00 441.98,257.48 439.36,260.51 C434.97,265.59 434.35,265.97 431.33,265.40 C428.50,264.87 427.90,265.13 426.90,267.33 C425.36,270.69 426.42,273.38 429.01,272.71 C430.59,272.29 431.00,272.68 431.00,274.59 C431.00,275.92 430.89,276.97 430.75,276.94 C430.61,276.90 429.08,275.90 427.35,274.72 ZM 455.67 242.33 C455.30,241.97 455.00,239.73 455.00,237.37 C455.00,234.07 454.53,232.82 452.97,231.99 C450.08,230.44 451.24,229.38 456.61,228.64 C460.38,228.12 461.53,228.34 462.61,229.75 C464.65,232.44 464.25,235.42 461.50,238.00 C460.12,239.29 459.00,240.95 459.00,241.67 C459.00,243.06 456.82,243.49 455.67,242.33 Z" fill="rgba(246,121,69,1)"/>
</g>
</svg>